<svg width="24" height="24" viewBox="0 0 24 24" fill="none" xmlns="http://www.w3.org/2000/svg">
<path d="M20.6227 17.5861C20.2996 18.2848 19.917 18.928 19.4738 19.5193C18.8697 20.3255 18.3751 20.8835 17.9938 21.1934C17.4029 21.702 16.7698 21.9625 16.0917 21.9773C15.605 21.9773 15.018 21.8477 14.3348 21.5847C13.6492 21.323 13.0192 21.1934 12.4432 21.1934C11.8391 21.1934 11.1911 21.323 10.4981 21.5847C9.80402 21.8477 9.24486 21.9847 8.81735 21.9983C8.16718 22.0242 7.51913 21.7563 6.87226 21.1934C6.45939 20.8563 5.94297 20.2786 5.32433 19.4601C4.66057 18.586 4.11488 17.5725 3.68737 16.417C3.22952 15.1689 3 13.9603 3 12.7902C3 11.4498 3.30945 10.2938 3.92928 9.32509C4.41642 8.54696 5.06447 7.93316 5.87557 7.48255C6.68666 7.03195 7.56305 6.80233 8.50685 6.78764C9.02326 6.78764 9.70047 6.93714 10.542 7.23096C11.3812 7.52576 11.9201 7.67526 12.1563 7.67526C12.3329 7.67526 12.9315 7.50045 13.9463 7.15194C14.9059 6.82874 15.7158 6.69492 16.3793 6.74764C18.1772 6.88343 19.5279 7.54675 20.4262 8.74177C18.8183 9.6536 18.0229 10.9307 18.0387 12.5691C18.0532 13.8452 18.5479 14.9071 19.52 15.7503C19.9606 16.1417 20.4526 16.4441 21 16.6589C20.8813 16.9812 20.756 17.2898 20.6227 17.5861V17.5861ZM16.4993 2.40011C16.4993 3.40034 16.1089 4.33425 15.3306 5.19867C14.3915 6.22629 13.2555 6.8201 12.0236 6.7264C12.0079 6.60641 11.9988 6.48011 11.9988 6.3474C11.9988 5.38718 12.4454 4.35956 13.2386 3.51934C13.6346 3.09392 14.1382 2.74019 14.7489 2.45801C15.3583 2.18005 15.9348 2.02632 16.4769 2C16.4927 2.13371 16.4993 2.26744 16.4993 2.4001V2.40011Z" fill="#D7D8DB"/>
</svg>
