<svg width="40" height="40" viewBox="0 0 40 40" fill="none" xmlns="http://www.w3.org/2000/svg">
<path d="M34.8906 17.0784C34.1002 16.2316 32.8017 16.2033 31.9549 16.9937C30.4305 18.4052 26.2244 21.7362 20.0141 21.7362C19.9859 21.7362 19.9295 21.7362 19.9012 21.7362C13.7192 21.7079 9.56954 18.4052 8.07342 16.9937C7.22656 16.2033 5.92805 16.2598 5.13764 17.0784C4.34724 17.9253 4.4037 19.2238 5.22233 20.0142C6.32325 21.0587 8.58154 22.8935 11.7996 24.2203L8.8356 36.3868L9.71069 36.6127L12.6465 24.559C14.7072 25.3212 17.1066 25.8575 19.8448 25.8858C19.9012 25.8858 19.9295 25.8858 19.9859 25.8858C22.7806 25.8858 25.2364 25.3494 27.3536 24.559L30.2894 36.5844L31.1645 36.3586L28.2005 24.2203C31.4185 22.8653 33.6768 21.0587 34.7777 20.0142C35.6246 19.2238 35.681 17.9253 34.8906 17.0784Z" fill="#272727"/>
<path d="M19.5625 9.90836V18.5181H20.4658V9.90836C23.7968 9.03327 42.0043 3.92389 20.0706 3.41577C20.0424 3.41577 20.0424 3.41577 20.0142 3.41577C19.9859 3.41577 19.9859 3.41577 19.9577 3.41577C-1.97596 3.92389 16.2315 9.00504 19.5625 9.90836Z" fill="#272727"/>
</svg>
