<svg width="40" height="40" viewBox="0 0 40 40" fill="none" xmlns="http://www.w3.org/2000/svg">
<path d="M20.0143 23.0911C20.7002 23.0911 21.2563 22.535 21.2563 21.849C21.2563 21.163 20.7002 20.6069 20.0143 20.6069C19.3283 20.6069 18.7722 21.163 18.7722 21.849C18.7722 22.535 19.3283 23.0911 20.0143 23.0911Z" fill="#272727"/>
<path d="M8.46866 21.4258C8.07345 21.4258 7.76294 21.7363 7.76294 22.1315C7.76294 22.5267 8.07345 22.8372 8.46866 22.8372C8.86386 22.8372 9.17437 22.5267 9.17437 22.1315C9.17437 21.7363 8.86386 21.4258 8.46866 21.4258Z" fill="#272727"/>
<path d="M25.2928 23.0911C25.9788 23.0911 26.5349 22.535 26.5349 21.849C26.5349 21.163 25.9788 20.6069 25.2928 20.6069C24.6069 20.6069 24.0508 21.163 24.0508 21.849C24.0508 22.535 24.6069 23.0911 25.2928 23.0911Z" fill="#272727"/>
<path d="M22.6112 26.8454C23.2972 26.8454 23.8533 26.2894 23.8533 25.6034C23.8533 24.9174 23.2972 24.3613 22.6112 24.3613C21.9252 24.3613 21.3691 24.9174 21.3691 25.6034C21.3691 26.2894 21.9252 26.8454 22.6112 26.8454Z" fill="#272727"/>
<path d="M15.0741 14.3686C13.7192 14.6509 12.4206 15.2437 11.3197 16.0623C10.3317 16.8245 9.54132 17.7278 8.92029 18.8287C8.77915 19.0828 8.86383 19.3933 9.11789 19.5344C9.20257 19.5909 9.28726 19.5909 9.37195 19.5909C9.54132 19.5909 9.73892 19.5062 9.82361 19.3368C10.3599 18.3771 11.0939 17.5584 11.9408 16.8809C12.9005 16.147 14.0579 15.6106 15.2717 15.3848C15.554 15.3284 15.7234 15.0461 15.6669 14.7638C15.6387 14.5097 15.3564 14.3121 15.0741 14.3686Z" fill="#272727"/>
<path d="M32.6324 17.3043C30.4305 12.3643 33.084 11.1504 33.1687 7.763C33.1969 5.84345 32.2089 4.54493 31.3339 3.81099C30.5999 3.18996 29.499 3.18996 28.765 3.81099C27.89 4.57316 26.8737 5.84345 26.9302 7.763C26.9866 11.094 29.5554 12.3078 27.5794 16.9938C25.3211 13.691 21.5103 11.4892 17.1913 11.4892C10.247 11.4892 4.60132 17.1349 4.60132 24.0792C4.60132 31.0234 10.247 36.6691 17.1913 36.6691C20.4658 36.6691 23.4581 35.4271 25.6881 33.3664C26.1116 35.0319 26.535 36.2739 26.535 36.2739H33.5921C33.5921 36.2739 35.2576 31.2775 35.4552 27.7489C35.6246 24.2203 34.806 22.2161 32.6324 17.3043ZM25.3494 32.209C23.2605 34.3262 20.3529 35.6247 17.1631 35.6247C10.7834 35.6247 5.61755 30.4306 5.61755 24.0792C5.61755 17.6995 10.7834 12.5336 17.1631 12.5336C21.3409 12.5336 25.0389 14.7919 27.0431 18.1511C28.0876 19.8731 28.6804 21.9338 28.6804 24.1074C28.6804 27.2408 27.4101 30.1201 25.3494 32.209Z" fill="#272727"/>
</svg>
